<svg width="24" height="24" viewBox="0 0 24 24" fill="none" xmlns="http://www.w3.org/2000/svg">
<path d="M10.5782 22.4014L1.59864 13.4218C0.800454 12.6236 0.800454 11.3764 1.59864 10.5782L10.5782 1.59864C11.3764 0.800454 12.6236 0.800454 13.4218 1.59864L22.4014 10.5782C23.1995 11.3764 23.1995 12.6236 22.4014 13.4218L13.4218 22.4014C12.6236 23.1995 11.3265 23.1995 10.5782 22.4014Z" fill="#F44336"/>
<path d="M11 16.85C11 16.7 11.04 16.55 11.08 16.4C11.12 16.25 11.2 16.15 11.28 16.05C11.36 15.95 11.48 15.85 11.6 15.8C11.72 15.75 11.84 15.7 12 15.7C12.16 15.7 12.28 15.75 12.4 15.8C12.52 15.85 12.64 15.95 12.72 16.05C12.8 16.15 12.88 16.25 12.92 16.4C12.96 16.55 13 16.7 13 16.85C13 17 12.96 17.15 12.92 17.3C12.88 17.45 12.8 17.55 12.72 17.65C12.64 17.75 12.52 17.85 12.4 17.9C12.28 17.95 12.16 18 12 18C11.84 18 11.72 17.95 11.6 17.9C11.48 17.85 11.4 17.75 11.28 17.65C11.2 17.55 11.12 17.45 11.08 17.3C11.04 17.15 11 17.05 11 16.85ZM12.68 14.55H11.24L11.04 7H12.88L12.68 14.55V14.55Z" fill="white"/>
</svg>
