<svg width="24" height="24" viewBox="0 0 24 24" fill="none" xmlns="http://www.w3.org/2000/svg">
<path d="M10.8 21.6625L2.55 13.4125C1.81667 12.6792 1.81667 11.5333 2.55 10.8L10.8 2.55C11.5333 1.81667 12.6792 1.81667 13.4125 2.55L21.6625 10.8C22.3958 11.5333 22.3958 12.6792 21.6625 13.4125L13.4125 21.6625C12.6792 22.3958 11.4875 22.3958 10.8 21.6625Z" fill="#FFC107"/>
<path d="M12.5832 12.8333C13.0894 12.8333 13.4998 12.4229 13.4998 11.9167C13.4998 11.4104 13.0894 11 12.5832 11C12.0769 11 11.6665 11.4104 11.6665 11.9167C11.6665 12.4229 12.0769 12.8333 12.5832 12.8333Z" fill="white"/>
<path d="M16.2502 12.8333C16.7564 12.8333 17.1668 12.4229 17.1668 11.9167C17.1668 11.4104 16.7564 11 16.2502 11C15.7439 11 15.3335 11.4104 15.3335 11.9167C15.3335 12.4229 15.7439 12.8333 16.2502 12.8333Z" fill="white"/>
<path d="M8.91667 12.8333C9.42293 12.8333 9.83333 12.4229 9.83333 11.9167C9.83333 11.4104 9.42293 11 8.91667 11C8.41041 11 8 11.4104 8 11.9167C8 12.4229 8.41041 12.8333 8.91667 12.8333Z" fill="white"/>
</svg>
